<svg id="Capa_1" data-name="Capa 1" xmlns="http://www.w3.org/2000/svg" viewBox="0 0 800 800"><defs><style>.cls-1{fill:none;stroke:#749577;stroke-linejoin:round;stroke-width:5px;}</style></defs><title>controlJ2_Mesa de trabajo 1</title><rect class="cls-1" x="299.92" y="236" width="200.17" height="113.41" rx="22.61" ry="22.61"/><rect class="cls-1" x="299.92" y="357.56" width="200.17" height="113.41" rx="22.61" ry="22.61"/><rect class="cls-1" x="507.99" y="357.56" width="200.17" height="113.41" rx="22.61" ry="22.61"/><rect class="cls-1" x="91.84" y="357.56" width="200.17" height="113.41" rx="22.61" ry="22.61"/><line class="cls-1" x1="400.58" y1="434.49" x2="400.58" y2="398.92"/><polyline class="cls-1" points="381.32 417.4 400.58 434.49 420.09 417.4"/><line class="cls-1" x1="400.31" y1="263.34" x2="400.31" y2="298.91"/><polyline class="cls-1" points="419.57 280.43 400.31 263.34 380.8 280.43"/><line class="cls-1" x1="615.34" y1="415.9" x2="579.77" y2="415.9"/><polyline class="cls-1" points="598.25 435.16 615.34 415.9 598.25 396.39"/><line class="cls-1" x1="161.43" y1="416.16" x2="197" y2="416.16"/><polyline class="cls-1" points="178.53 396.91 161.43 416.16 178.53 435.68"/></svg>