<?xml version="1.0" encoding="utf-8"?>
<!-- Generator: Adobe Illustrator 22.1.0, SVG Export Plug-In . SVG Version: 6.00 Build 0)  -->
<svg version="1.1" id="Capa_1" xmlns="http://www.w3.org/2000/svg" xmlns:xlink="http://www.w3.org/1999/xlink" x="0px" y="0px"
	 viewBox="0 0 800 800" style="enable-background:new 0 0 800 800;" xml:space="preserve">
<style type="text/css">
	.st0{fill:none;stroke:#77997A;stroke-width:5;stroke-miterlimit:10;}
	.st1{fill:#77997A;}
</style>
<path class="st0" d="M549.3,417.1c0,187.9,93.3,323.5-119.8,323.5C278.5,740.6,156,588.2,156,400.3S278.5,60,429.6,60
	S549.3,229.2,549.3,417.1z"/>
<path class="st0" d="M528.8,413.9c0,173.4,81.8,298.5-105,298.5c-132.5,0-239.9-140.6-239.9-314s107.4-314,239.9-314
	S528.8,240.5,528.8,413.9z"/>
<circle class="st0" cx="304.3" cy="295.5" r="37.7"/>
<circle class="st1" cx="367.5" cy="453.2" r="25.5"/>
<circle class="st1" cx="291.9" cy="560.1" r="25.5"/>
<path class="st1" d="M387,649.7c8.8,11,26.1,11.6,15.2,20.5s-27,7.1-35.8-3.9c-8.8-11-7.1-27,3.9-35.8
	C381.2,621.6,378.2,638.7,387,649.7z"/>
<path class="st0" d="M368.4,161c8.8,11,26.1,11.6,15.2,20.5c-11,8.8-27,7.1-35.8-3.9c-8.8-11-7.1-27,3.9-35.8
	C362.6,133,359.6,150.1,368.4,161z"/>
<circle class="st0" cx="457.5" cy="225.6" r="13.2"/>
<circle class="st1" cx="482.4" cy="621" r="13.2"/>
<circle class="st0" cx="495.6" cy="407.4" r="13.2"/>
<circle class="st0" cx="421.5" cy="328.3" r="7.7"/>
<circle class="st1" cx="427.9" cy="474.8" r="3.9"/>
<circle class="st0" cx="502.7" cy="291.5" r="3.9"/>
<circle class="st0" cx="457.5" cy="283.8" r="3.9"/>
<circle class="st1" cx="502.7" cy="457.1" r="3.9"/>
<circle class="st1" cx="482.4" cy="534.7" r="3.9"/>
<circle class="st1" cx="295.8" cy="474.8" r="3.9"/>
<circle class="st0" cx="360.7" cy="371.8" r="3.9"/>
<circle class="st0" cx="223.9" cy="320.6" r="3.9"/>
<circle class="st0" cx="308.1" cy="192.2" r="3.9"/>
<circle class="st0" cx="383.2" cy="242.6" r="3.9"/>
<circle class="st0" cx="482.4" cy="163.3" r="3.9"/>
<circle class="st0" cx="417.9" cy="152" r="20.3"/>
<circle class="st0" cx="424" cy="328.3" r="20.3"/>
<circle class="st0" cx="482.4" cy="539.8" r="20.3"/>
<circle class="st0" cx="260" cy="420.6" r="20.3"/>
<circle class="st0" cx="379.3" cy="560.1" r="20.3"/>
</svg>
