<?xml version="1.0" encoding="utf-8"?>
<!-- Generator: Adobe Illustrator 22.1.0, SVG Export Plug-In . SVG Version: 6.00 Build 0)  -->
<svg version="1.1" id="Capa_1" xmlns="http://www.w3.org/2000/svg" xmlns:xlink="http://www.w3.org/1999/xlink" x="0px" y="0px"
	 viewBox="0 0 800 800" style="enable-background:new 0 0 800 800;" xml:space="preserve">
<style type="text/css">
	.st0{fill:#77997A;}
	.st1{fill:#A7C8A1;}
	.st2{clip-path:url(#SVGID_2_);fill:#7CAD83;}
	.st3{fill:none;stroke:#77997A;stroke-width:5;stroke-miterlimit:10;}
</style>
<path class="st0" d="M522.3,445.3c0,187.9,93.3,323.5-119.8,323.5C251.5,768.8,129,616.4,129,428.5S251.5,88.2,402.6,88.2
	S522.3,257.3,522.3,445.3z"/>
<path class="st1" d="M501.8,442.1c0,173.4,81.8,298.5-105,298.5c-132.5,0-239.9-140.6-239.9-314s107.4-314,239.9-314
	S501.8,268.7,501.8,442.1z"/>
<circle class="st0" cx="277.3" cy="323.7" r="37.7"/>
<circle class="st0" cx="340.5" cy="481.4" r="25.5"/>
<circle class="st0" cx="264.9" cy="588.3" r="25.5"/>
<path class="st0" d="M360,677.9c8.8,11,26.1,11.6,15.2,20.5c-11,8.8-27,7.1-35.8-3.9c-8.8-11-7.1-27,3.9-35.8
	C354.2,649.8,351.2,666.9,360,677.9z"/>
<path class="st0" d="M341.4,189.2c8.8,11,26.1,11.6,15.2,20.5c-11,8.8-27,7.1-35.8-3.9c-8.8-11-7.1-27,3.9-35.8
	C335.6,161.2,332.6,178.3,341.4,189.2z"/>
<circle class="st0" cx="430.5" cy="253.7" r="13.2"/>
<circle class="st0" cx="455.4" cy="649.2" r="13.2"/>
<circle class="st0" cx="468.6" cy="435.6" r="13.2"/>
<circle class="st0" cx="394.5" cy="356.5" r="7.7"/>
<circle class="st0" cx="400.9" cy="503" r="3.9"/>
<circle class="st0" cx="475.7" cy="319.7" r="3.9"/>
<circle class="st0" cx="430.5" cy="312" r="3.9"/>
<circle class="st0" cx="475.7" cy="485.3" r="3.9"/>
<circle class="st0" cx="455.4" cy="562.9" r="3.9"/>
<circle class="st0" cx="268.8" cy="503" r="3.9"/>
<circle class="st0" cx="333.7" cy="400" r="3.9"/>
<circle class="st0" cx="196.9" cy="348.8" r="3.9"/>
<circle class="st0" cx="281.1" cy="220.4" r="3.9"/>
<circle class="st0" cx="356.2" cy="270.8" r="3.9"/>
<circle class="st0" cx="455.4" cy="191.5" r="3.9"/>
<circle class="st3" cx="390.9" cy="180.2" r="20.3"/>
<circle class="st3" cx="397" cy="356.5" r="20.3"/>
<circle class="st3" cx="455.4" cy="568" r="20.3"/>
<circle class="st3" cx="233" cy="448.8" r="20.3"/>
<circle class="st3" cx="352.3" cy="588.3" r="20.3"/>
</svg>
