<?xml version="1.0" encoding="utf-8"?>
<!-- Generator: Adobe Illustrator 22.1.0, SVG Export Plug-In . SVG Version: 6.00 Build 0)  -->
<svg version="1.1" id="Capa_1" xmlns="http://www.w3.org/2000/svg" xmlns:xlink="http://www.w3.org/1999/xlink" x="0px" y="0px"
	 viewBox="0 0 800 800" style="enable-background:new 0 0 800 800;" xml:space="preserve">
<style type="text/css">
	.st0{fill:#BDC8CE;}
	.st1{fill:#A7C8A1;}
	.st2{clip-path:url(#SVGID_2_);fill:#7CAD83;}
	.st3{fill:#E9F2EB;}
	.st4{fill:#77997A;}
	.st5{fill:none;stroke:#77997A;stroke-width:5;stroke-miterlimit:10;}
	.st6{fill:#A5A0C9;}
	.st7{fill:#989EA6;}
	.st8{fill:#3D4893;}
</style>
<path class="st0" d="M622.7,429.9c0,187.9-7,338.9-220.1,338.9C251.5,768.8,129,616.4,129,428.5S251.5,88.2,402.6,88.2
	S622.7,242,622.7,429.9z"/>
<path class="st3" d="M602.1,426.7c0,173.4-18.5,313.9-205.4,313.9c-132.5,0-239.9-140.6-239.9-314s107.4-314,239.9-314
	S602.1,253.3,602.1,426.7z"/>
<path class="st6" d="M404.2,189.4c-21.8-10.9-39.7,25.2-54.9,23.5c-17.7-2-66.5-14.4-65,66c1,52.1-70.9,123.5-51.8,221.3
	c9.7,49.4,106.3,94.3,130.4,106.3c54.6,27.3,150.4,45.3,177.9,30.6c58.7-31.4-2.2-93.6-2.7-112.1c-1.1-44.5-70.6-53.8-89.4-46.7
	c-57.6,21.6-49.5,43.2-67.3,70.7c-14.7,22.6-123.1-14.2-128.1-42.6c-18.1-101.9,55.2-130.4,95.5-145.5c23.2-8.7,25.2-1.2,63.1-38.3
	C449.6,285.6,424.5,199.5,404.2,189.4z"/>
</svg>
