<?xml version="1.0" encoding="utf-8"?>
<!-- Generator: Adobe Illustrator 22.1.0, SVG Export Plug-In . SVG Version: 6.00 Build 0)  -->
<svg version="1.1" id="Capa_1" xmlns="http://www.w3.org/2000/svg" xmlns:xlink="http://www.w3.org/1999/xlink" x="0px" y="0px"
	 viewBox="0 0 800 800" style="enable-background:new 0 0 800 800;" xml:space="preserve">
<style type="text/css">
	.st0{fill:#76AADB;}
	.st1{fill:none;}
	.st2{fill:#FFFFFF;}
	.st3{font-family:'Brown-Regular';}
	.st4{font-size:48px;}
	.st5{font-family:'Brown-Light';}
	.st6{font-size:24px;}
</style>
<rect class="st0" width="800" height="800"/>
<g>
	<g>
		<g>
			
				<image style="overflow:visible;" width="137" height="137" xlink:href="5F0DA88BD475A135.png"  transform="matrix(1 0 0 1 326.8301 29.8667)">
			</image>
		</g>
	</g>
</g>
<rect x="242" y="195.7" class="st1" width="315.9" height="48"/>
<text transform="matrix(1 0 0 1 242.0319 229.761)"><tspan x="0" y="0" class="st2 st3 st4">Instruccio</tspan><tspan x="223.2" y="0" class="st2 st3 st4">-</tspan></text>
<rect x="71.5" y="279.3" class="st1" width="653.6" height="402.7"/>
<text transform="matrix(1 0 0 1 71.5459 296.3511)"><tspan x="0" y="0" class="st2 st5 st6">Instrucciones.Lorem ipsum dolor sit amet, consectetuer adi</tspan><tspan x="639.8" y="0" class="st2 st5 st6">-</tspan><tspan x="0" y="28.8" class="st2 st5 st6">piscing elit, sed diam nonummy nibh euismod tincidunt ut </tspan><tspan x="0" y="57.6" class="st2 st5 st6">laoreet dolore magna aliquam erat volutpat. Ut wisi enim </tspan><tspan x="0" y="86.4" class="st2 st5 st6">ad minim Lorem ipsum dolor sit amet, consectetuer adipis</tspan><tspan x="630.8" y="86.4" class="st2 st5 st6">-</tspan><tspan x="0" y="115.2" class="st2 st5 st6">cing elit, sed diam nonummy nibh euismod tincidunt ut lao</tspan><tspan x="638.3" y="115.2" class="st2 st5 st6">-</tspan><tspan x="0" y="144" class="st2 st5 st6">reet dolore magna aliquam erat volutpat. Ut wisi enim ad </tspan><tspan x="0" y="172.8" class="st2 st5 st6">minim veniam, quis nostrud exerci tation ullamcorper susci</tspan><tspan x="636" y="172.8" class="st2 st5 st6">-</tspan><tspan x="0" y="201.6" class="st2 st5 st6">pit lobortis nisl ut aliquip ex ea commodo consequat. Duis </tspan><tspan x="0" y="230.4" class="st2 st5 st6">autem vel eum iriure dolor in hendrerit in vulputate velit </tspan><tspan x="0" y="259.2" class="st2 st5 st6">esse molestie consequat, vel illum dolore eu feugiat nulla fa</tspan><tspan x="642.8" y="259.2" class="st2 st5 st6">-</tspan><tspan x="0" y="288" class="st2 st5 st6">cilisis at vero eros et accumsan et iusto odio dignissim qui </tspan><tspan x="0" y="316.8" class="st2 st5 st6">blandit praesent luptatum zzril delenit augue duis dolore te </tspan><tspan x="0" y="345.6" class="st2 st5 st6">feugait nulla facilisi.</tspan><tspan x="0" y="374.4" class="st2 st5 st6">Lorem ipsum dolor sit amet, cons ectetuer adipiscing elit, </tspan></text>
</svg>
