<?xml version="1.0" encoding="utf-8"?>
<!-- Generator: Adobe Illustrator 22.1.0, SVG Export Plug-In . SVG Version: 6.00 Build 0)  -->
<svg version="1.1" id="Capa_1" xmlns="http://www.w3.org/2000/svg" xmlns:xlink="http://www.w3.org/1999/xlink" x="0px" y="0px"
	 viewBox="0 0 800 800" style="enable-background:new 0 0 800 800;" xml:space="preserve">
<style type="text/css">
	.st0{fill:#5B9D94;}
</style>
<g>
	<path class="st0" d="M680.1,426.5c-29.9-6.9-50.6-22.1-74.2-40.5c-14-11-52.4-22.2-60.4-39c1.3-8.8,7.5-17.4,16.8-20.1
		c10-2.9,24.5-3.6,34.5-0.1c11.1,4,22.9,9,34.9,7.1c6.9-1.1,12.3-6.9,11.3-14.2c-2.2-15.4-10.2-22-25.1-18.7
		c-14.5,3.2-25,13.1-40.8,2.7c-6.6-4.3-11.9-3.8-19.5-2.9c-4.4-6.2-8.8-12.4-13.2-18.6c4.2-7,9.6-12.8,16.2-17.6
		c4.9-3.8,10.6-6.8,15.8-10.1c10.1-6.3,16.5-13.8,20.7-24.9c4.8-13,13.2-14.8,21.7-24.2c3.4-3.8,8-11.8,7.5-17.3
		c-1.2-13.4-15.7-8.4-23.8-4.2c-5.9,3.1-11,8.5-14.7,13.9c-3.7,5.5-7.2,11-11.4,16.2c-9.5,11.7-25.4,11.6-38.5,12.6
		c-10.3,0.8-18.5,3.9-27.6,8.8c-27.1,14.7-33.3-3.5-39.4-23c-11.6-36.6,13.4-71.1,28.7-102.9c4.6-9.6,18.1-43.3-6.6-33.3
		c-14.6,6-18.1,18-18.8,32.8c-1.3,27.2-19.6,89.7-56.5,85.7c-9-1-15-2.8-23.8-0.1c-1.6,0.5-4.8,2.5-3.1,4.6
		c4.4,5.5,16.8,16.4-8.9,8.7c-10.3-3.1-19.4-11-25.5-19.6c-11.5-16.3-4.6-39.1-14.5-56.6c-1.7-3-8.5-0.4-8.1,2.9
		c1.8,13.2,6,24.4,4.3,37.1c-22.7-19.1-20.6-52.3-35.3-76.8c-4.3-7.2-22.8-28.4-30.8-12c-5.2,10.6-0.4,17.7,7.1,26.1
		c12.4,13.7,24.6,24.3,33,41.3c8,16.2,10.1,37.7,8.6,55.4c-0.6,6.9-5,12.9-6,19.6c-1.6,10.6-1.5,21.1-3,31.6
		c-1.9,0.2-4.3,0.7-5.2,1.7c-21.3-10-36.9-45.8-61.9-34.6c-1.3,0.6-3.5,2.6-2,4.2c7,7.6,67.8,36.4,53.1,46.3
		c-0.1-0.1-0.2-0.1-0.3-0.2c-1.4-0.8-8.3,0.4-8.2,2.5c0,0.1,0,0.2,0,0.3c-1.8,0.3-5.2,1.7-4.4,4c1.9,5.6,2.8,10.8,2.4,16.3
		c-0.1,0.3-0.3,0.6-0.4,0.9c-2.9-0.8-5.8-1.1-8.8-0.9c-7.6-2.6-15.7-0.5-20.7,8.1c-0.5,0.8,1,0.8,1.4,0.9
		c-6.2,3.9-12.4,7.9-12.8,7.6c-1.5-1-4-0.5-5.7,0.6c-0.8,0-1.5,0.1-2.3,0.1c-4.9,0.1-9.9-0.1-14.8-0.3c-9.4-0.4-18.7-1.3-28.1-2.3
		c-13.2-1.3-26.4-2.8-39.8-1.9c-7.6,0.5-17.5,1-24,5.6c-11.1,7.8,8.4,18.2,14.1,21.5c11,6.4,27,11.1,39.6,7.7
		c2.3-0.6,5.1-2.1,6.3-4.2c2.4-4,7.5-17.6,15.9-10.3c3.1,2.7,4.4,5.3,8.8,6.2c21,4,41.8-5.3,63,2.3c12.6,4.5,16.1,17.7,18.1,29.4
		c3.5,20.8-7.3,31.2-26.6,35c-17.1,3.4-28.1,14.7-40.5,26.5c-18.8,17.8-51.9,19-66,41.8c-13.7,22,24.9,29.7,38.2,19
		c7.1-5.7,11.2-13.2,15.8-21c5.7-9.7,10.7-13.5,19.8-20.4c6.8-5.1,12.9-12.8,22.5-10.6c1.6,0.4,4.6,1.1,6.7,0.9
		c4.9-0.5,9.2-2,13.4-4.5c10.5-6.3,31.9-46.2,39.4-16.4c4.5,18-9.6,38.1-20.7,50.8c-7,8.1-29.6,38-3.1,35.4
		c20.4-2,18.9-24.4,26.2-39.4c0.4,5.1,0.1,10.1-0.7,15c-7.6,9.1-8.7,26.7-13.3,36.7c-0.5,1.1,7.3,0.5,8.3-1.5
		c5.7-11.7,10.9-23.1,13.1-35.1c4.4-5.3,12-7.9,19.6-10.1c-2.8,10.5-10.5,14.8-19.3,25.5c-5.7,7-0.8,11.1,6.9,11.1
		c9.9,0,15.3-8.7,19.8-16.3c0.6-1.1,7.7-15.1,11.3-6.2c1.8,4.3-0.8,11.5-1.9,15.7c-2.8,10.5-7.8,21-14.5,29.6
		c-8.8,11.2-21.9,18.9-26.4,31.5c-0.5,0.3-0.9,0.7-1,1.2c-0.4,2.1-0.5,4.1-0.5,6c-0.1,1.9-0.1,3.9,0.1,6.1c0.5,3.6,2.5,6.2,5.3,7.9
		c8,7.8,22.6,5.9,28.8-6.3c4.6-4.7,5.8-10.1,4.7-17.9c4.3-18.5,10.1-34.9,19.7-52.4c5.4-9.9,9.3-18.4,12.6-29.1
		c0.3-1.1,1.2-1.5,2.3-1.6c3.6,5.2,8.5,8.4,15.7,4.3c0.3-0.2,0.6-0.4,0.9-0.6c15.4-1.7,25.8-15.5,39.8-11.8
		c4.6,2.4,8.6,5.3,12.7,7.9c7.7,7.7,13.8,20.6,20.1,29.1c5.3,7.3,7.7,14.7,9.4,23.4c4,21.7,6.4,35.7,25.7,48.3
		c7.7,5,16.4,7.5,24.7,2.5c33.1-19.7-28.4-72.5-39-87.2c-9.7-13.3-20.1-37-11.1-52.7c2.2-3.8,4.5-6.6,6.9-8.6
		c5.3-1.9,10.9-3,16.6-3.2c6.9,2.1,13.3,7.5,17.6,11.9c2.9,2.9,5.4,5.6,8.7,8c4.9,3.7,14,5,20,4.2c8.1-1.1,16.6-2.4,18.2-11.6
		c0.9-5.2-8.9-7.8-11.9-9.1c-5.1-2.2-4.1-8.5-3.1-12.7c1.9-7.9,16.5-4.2,21.9-3.1c44.8,9.1,78.9,43.4,127.2,38.7
		c0.8-0.1,7.2-1.5,5.8-3C709.6,436.4,697.6,430.5,680.1,426.5z"/>
	<path class="st0" d="M790.9,468.7c-7-0.5-14,1.6-21,0.5c-5.2-0.8-10.1-5.1-14.2-8c-4.8-3.4-10.2-5.1-15.5-7.7
		c-1.5-0.7-4.9,0.3-6.6,1.6c-2.6,0.7-5,2.4-3.6,3.6c6.6,5.6,13.5,10.7,20.7,15.6c6.9,4.7,17.5,7.9,22.6,14.4
		c5.9,7.4,15.4,7.5,22.5,1C802.8,483.5,800.9,469.4,790.9,468.7z"/>
	<path class="st0" d="M437.9,178.8c1.8-1.4,3.7-2.6,5.4-4.2c1.3-1.2,2.2-3,3.1-4.4c0.4-0.6,0.4-1.7-0.1-2.2
		c-2.4-2.2-5.2-3.5-8.5-2.3c-1.3,0.5-2.4,1.1-3.4,2c-0.8,0.4-1.4,1-1.7,1.6c-0.9,0.5-1.6,1.3-1.8,2.3c-0.1,0.8,0.2,1.4,0.8,1.8
		c-0.4,1.3-0.7,2.6-0.8,4C430.7,180.9,436.1,180.1,437.9,178.8z"/>
	<path class="st0" d="M624.7,491.9c-2.8-0.8-5.4-0.8-8.1,0.2c-1.8,0.7-3.4,2.3-4.9,3c-1.3,0.7-3,2.3-2.2,3.9c-1.1,1.3-1.6,3-1.6,4.7
		c-0.1,2,2.1,3.1,3.9,2.8c3.3-0.5,6.9-0.3,9.8-2.2c2.7-1.8,3.6-6.4,4.7-9.1C626.9,493.8,626.2,492.3,624.7,491.9z"/>
	<path class="st0" d="M296.6,530.9c-1.8,0.2-3.3,0.7-4.9,1.6c-0.8,0.4-1.2,1.2-1.7,1.9c-1.1,0.4-2.2,0.9-2.6,1.8
		c-0.4,0.9,0.8,1,1.9,1c0,0-0.1,0-0.1,0c-6.1,4.8-8.7,11.1-4.7,18.2c0.9,1.7,5.5,0.1,6.6-0.5c9.1-4.9,15.1-13.6,9-23.5
		C299.4,530.3,297.5,530.8,296.6,530.9z"/>
	<path class="st0" d="M342.1,607.3c0-0.8-0.5-1.3-1.2-1.6c-0.1-0.1-0.1-0.3-0.2-0.5c-1.5-2.7-9.6,0.2-8.4,2.3
		c0.5,0.8,0.9,1.7,1.3,2.5c-3,19.4-39.6,128.4-12.4,123.6c19-3.4,20.2-35.1,22.2-49.8c2.9-21.4,8.2-55.5-1.3-75.8
		C342,607.8,342.1,607.6,342.1,607.3z"/>
	<path class="st0" d="M143.3,509.8c-1,0.5-1.7,1.1-2.3,2c-0.1,0.1-0.2,0.4-0.4,0.7c-0.5,0-1.1,0-1.6,0.1c-3.8,0.5-6.6,2.7-8.4,6.1
		c-0.3,0.5,0.3,1,0.8,1.1c4.6,1.3,8.8,2.7,13.5,1c4.1-1.5,5.3-5.6,7.1-9.2c0.1-0.3,0-0.6-0.2-0.8
		C149.8,507.8,146.2,508.3,143.3,509.8z"/>
	<path class="st0" d="M107.2,505.2c-1.7,0.7-3.1,1.4-4.7,2.4c-2.1,1.3-0.1,1.6,2.2,1.4c0,0.2,0,0.3,0,0.5c-1.5,0-3.4,0.2-4.3,0.6
		c-29.7,13.1-53.3,36-82.4,50c-18.2-12.9-29.8,28.8,1.3,30.2c12.3,0.5,19.9-12,26.4-20.3c18.9-24.3,47.4-38.5,68.2-60.9
		c0.3-0.2,0.4-0.5,0.4-0.9c-0.5-1-1-2-1.5-3C112.1,503.6,108.3,504.8,107.2,505.2z"/>
	<path class="st0" d="M108.5,305.4c0.1-0.3,0.1-0.5-0.2-0.7c-1.9-0.8-3.8-1.2-5.7-1.4c-13-4.3-27.1-8.6-40.4-3.9
		c-0.6,0.2-3.5,1.2-2.5,2.3C72.3,315.5,95.7,323.4,108.5,305.4z"/>
	<path class="st0" d="M186.5,300.4c14,1.8,27.6,7,41.8,4.2c0.6-0.1,6.1-1.6,4.8-2.8c-8.4-7.6-20.8-8.8-31.7-8.9
		c-1.4,0-7.7,2.5-6.5,3.1c-2.5,0.6-4.9,1.4-7.4,2.5C187,298.7,184.5,300.2,186.5,300.4z"/>
	<path class="st0" d="M211.1,77.6c1.8,1.7,3.8,3.3,6,4.5c2,1.1,6.3,0.5,7.3-1.9c1-2.7,1.9-5.5-0.7-7.5c-0.7-0.6-1.8-0.8-2.7-1.1
		c-0.2,0-1.2-0.5-0.5-0.1c-0.6-0.3-0.2,0-0.6-0.6c-0.5-0.8-1.5-1.1-2.6-1.1c-2.7-0.5-6.6,1.1-7.9,3.2
		C208.2,75,209.6,76.2,211.1,77.6z"/>
	<path class="st0" d="M140.1,81c-1.2-2-2.9-3.5-4.4-5.3c0.4-0.6,0.5-1.3,0.1-1.9c-3.5-5.1-8.1-9.1-13.6-12c-1.7-0.9-8.6,0.2-7.5,3.2
		c3.2,9.2,9.8,15.4,18.3,19.8C134.9,85.8,142,84.2,140.1,81z"/>
	<path class="st0" d="M218.6,179.5c2.3,1.7,4.2,3.6,6,5.9c0.6,0.8,1.1,1.6,1.7,2.5c0,1.8,0,3.6,0,5.4c0,2,2,3.2,3.9,2.9
		c3.1-0.4,5.7-2.1,8-4.1c1.9-1.6,3.1-3.9,1.9-5.4c0,0,0,0,0.1,0c-1.2-2.3-3.4-3.3-5.9-3.1c-0.2,0-0.3,0.1-0.5,0.1
		c-0.1-0.2-0.3-0.3-0.3-0.4c-0.8-1.1-1.6-2.2-2.5-3.3c-1.7-2.1-3.7-3.9-5.9-5.5C221.9,172.3,214.6,176.7,218.6,179.5z"/>
	<path class="st0" d="M295.7,222.3c-1.9-3.4-5.4-5.4-7.3-8.7c0-0.2-0.2-0.3-0.5-0.4c-0.9-0.5-2.7-0.2-4.4,0.4
		c-1.5,0.4-2.7,0.9-3.2,1.7c-0.2,0.2-0.3,0.4-0.3,0.6c0,2.4,0,4.8,0,7.3c0.1,0.1,0.2,0.2,0.2,0.3c2.8,1.3,5.4,1.7,8.5,1.7
		C289.5,225.1,296.5,223.8,295.7,222.3z"/>
</g>
</svg>
